<svg width="1364" height="1362" viewBox="0 0 1364 1362" fill="none" xmlns="http://www.w3.org/2000/svg">
<path fill-rule="evenodd" clip-rule="evenodd" d="M386.029 99.4999C402.629 98.9145 418.655 101.581 434.105 107.5C445.835 102.228 457.854 101.395 470.163 105C514.563 121.157 539.269 152.657 544.281 199.5C543.529 219.081 533.846 231.914 515.235 238C507.222 240 499.209 240 491.196 238C478.507 232.798 465.654 228.298 452.635 224.5C447.314 226.359 441.806 227.526 436.109 228C433.161 228.942 430.323 230.108 427.595 231.5C424.897 235.554 422.726 239.888 421.085 244.5C424.046 250.079 426.718 255.745 429.097 261.5C441.322 261.974 453.341 263.808 465.155 267C472.864 270.197 478.874 275.364 483.183 282.5C513.389 273.7 543.77 273.2 574.329 281C582.012 282.916 588.522 286.75 593.86 292.5C655.579 253.96 722.853 231.793 795.681 226C948.441 215.319 1054.11 280.153 1112.69 420.5C1138.36 487.967 1152.21 557.8 1154.25 630C1154.26 663.186 1150.26 695.853 1142.23 728C1142.56 728.833 1142.9 729.667 1143.23 730.5C1197.24 755.602 1230.79 797.269 1243.89 855.5C1257.42 921.364 1248.06 983.698 1215.85 1042.5C1201.71 1064.29 1183.84 1082.46 1162.26 1097C1150.06 1103.11 1137.54 1103.95 1124.71 1099.5C1115.58 1111.85 1105.39 1123.35 1094.16 1134C1084.44 1139.51 1074.09 1143.34 1063.11 1145.5C1060.49 1167.11 1049.81 1183.44 1031.06 1194.5C1028.76 1225.79 1013.24 1247.46 984.482 1259.5C960.355 1267.12 938.153 1263.46 917.876 1248.5C898.263 1256.33 878.565 1256.5 858.782 1249C854.964 1247.68 851.792 1245.52 849.266 1242.5C829.624 1261.53 806.42 1267.7 779.656 1261C770.819 1258.01 762.64 1253.84 755.117 1248.5C717.705 1263.93 687.324 1255.27 663.971 1222.5C660.775 1216.09 658.271 1209.43 656.459 1202.5C643.961 1199.35 633.444 1193.01 624.909 1183.5C594.848 1193.97 564.8 1193.97 534.766 1183.5C514.448 1200.83 490.911 1210.99 464.153 1214C451.775 1214.97 439.423 1215.3 427.094 1215C402.244 1241.62 372.529 1248.95 337.952 1237C328.228 1231.64 319.88 1224.64 312.912 1216C281.876 1215.59 259.005 1201.76 244.303 1174.5C235.121 1151.71 235.622 1129.21 245.805 1107C225.417 1092.29 215.401 1072.29 215.758 1047C215.339 1023.23 224.02 1003.56 241.799 988C244.643 986.08 247.647 984.413 250.813 983C264.038 979.159 277.392 975.826 290.877 973C300.76 969.989 310.442 966.489 319.923 962.5C293.656 934.069 273.456 901.736 259.327 865.5C253.239 849.435 248.065 833.102 243.802 816.5C233.938 816.938 224.923 814.438 216.759 809C117.652 720.725 88.7724 613.225 130.121 486.5C136.732 469.299 144.912 452.966 154.66 437.5C142.288 418.439 136.279 397.439 136.632 374.5C138.644 325.652 158.008 285.152 194.724 253C201.588 247.409 208.933 242.576 216.759 238.5C220.352 196.819 239.717 164.652 274.852 142C292.199 132.003 310.895 126.67 330.941 126C338.757 113.208 350.109 105.542 364.995 103C372.115 101.593 379.126 100.426 386.029 99.4999Z" fill="#151313"/>
<path fill-rule="evenodd" clip-rule="evenodd" d="M454.137 142.5C482.548 151.508 498.907 170.508 503.215 199.5C493.09 194.352 482.406 191.019 471.164 189.5C468.062 172.874 462.387 157.208 454.137 142.5Z" fill="#C37B3B"/>
<path fill-rule="evenodd" clip-rule="evenodd" d="M325.933 166.5C329.973 166.672 333.98 167.172 337.952 168C358.806 178.986 376.835 193.486 392.038 211.5C388.839 216.554 386.168 221.888 384.026 227.5C383.191 227.833 382.356 228.167 381.522 228.5C340.348 221.242 299.449 222.575 258.826 232.5C264.009 204.458 279.7 184.291 305.901 172C312.53 169.515 319.207 167.682 325.933 166.5Z" fill="#C37B3B"/>
<path fill-rule="evenodd" clip-rule="evenodd" d="M818.718 264.5C942.105 263.134 1027.07 319.134 1073.62 432.5C1103.42 505.996 1116.44 582.33 1112.69 661.5C1111.17 682.554 1107.5 703.22 1101.67 723.5C1100.95 724.059 1100.11 724.392 1099.16 724.5C1090.31 721.931 1081.3 720.264 1072.12 719.5C1075.24 655.628 1068.05 592.961 1050.59 531.5C1038.7 491.759 1020 455.759 994.498 423.5C934.276 358.533 862.328 341.366 778.654 372C719.977 397.245 674.404 437.411 641.936 492.5C587.889 518.7 560.345 562.033 559.305 622.5C559.882 630.904 560.883 639.237 562.309 647.5C552.918 681.337 548.245 715.837 548.287 751C548.528 772.307 550.198 793.473 553.295 814.5C542.927 840.925 536.249 868.258 533.263 896.5C528.181 878.062 527.179 859.395 530.258 840.5C519.234 839.935 508.216 839.269 497.206 838.5C494.391 863.404 496.394 887.904 503.215 912C498.262 918.296 494.09 925.129 490.695 932.5C489.872 935.117 489.371 937.784 489.193 940.5C483.34 939.941 477.831 938.274 472.667 935.5C444.088 889.905 427.061 840.238 421.585 786.5C411.417 686.08 427.443 590.08 469.662 498.5C500.579 433.953 544.482 379.786 601.372 336C667.112 292.004 739.561 268.171 818.718 264.5Z" fill="#C37B3B"/>
<path fill-rule="evenodd" clip-rule="evenodd" d="M424.089 301.5C432.562 301.47 440.908 302.47 449.129 304.5C344.532 366.844 277.926 457.51 249.311 576.5C235.175 641.766 233.004 707.433 242.801 773.5C242.467 774.5 242.133 775.5 241.799 776.5C154.749 699.194 130.878 605.527 170.185 495.5C187.002 457.031 211.207 423.864 242.801 396C295.304 349.786 355.734 318.286 424.089 301.5Z" fill="#C37B3B"/>
<path fill-rule="evenodd" clip-rule="evenodd" d="M387.03 139.5C395.958 139.035 404.637 140.202 413.072 143C425.329 155.136 434.009 169.47 439.113 186C431.825 187.986 424.48 189.653 417.078 191C402.241 173.514 385.547 158.18 366.998 145C373.639 142.583 380.317 140.749 387.03 139.5Z" fill="#C59C7D"/>
<path fill-rule="evenodd" clip-rule="evenodd" d="M317.92 254.5C339.433 254.032 360.801 255.532 382.022 259C384.948 265.001 388.286 270.834 392.038 276.5C352.767 289.605 315.374 306.771 279.86 328C245.135 351.629 213.585 379.129 185.209 410.5C177.669 394.224 175.332 377.224 178.198 359.5C185.93 318.138 208.466 287.972 245.805 269C269.308 260.874 293.346 256.041 317.92 254.5Z" fill="#C59C7D"/>
<path fill-rule="evenodd" clip-rule="evenodd" d="M521.244 315.5C530.299 315.283 539.314 315.783 548.287 317C554.278 317.559 559.954 319.059 565.314 321.5C478.105 397.221 422.183 491.887 397.547 605.5C380.634 682.399 379.966 759.399 395.544 836.5C402.844 869.404 414.362 900.737 430.099 930.5C415.928 932.117 401.906 934.617 388.032 938C379.929 940.584 372.083 943.751 364.494 947.5C344.479 930.851 328.12 911.184 315.416 888.5C292.337 846.369 278.314 801.369 273.349 753.5C264.208 674.978 273.222 598.644 300.392 524.5C330.576 449.706 379.154 389.872 446.124 345C459.76 336.359 474.117 329.026 489.193 323C499.718 319.204 510.402 316.704 521.244 315.5Z" fill="#C59C7D"/>
<path fill-rule="evenodd" clip-rule="evenodd" d="M841.754 391.5C892.947 388.807 935.181 406.807 968.456 445.5C992.936 476.048 1010.3 510.381 1020.54 548.5C1035.61 603.545 1041.45 659.545 1038.07 716.5C1029.68 716.226 1021.34 716.56 1013.03 717.5C1004.9 713.691 996.717 710.024 988.488 706.5C989.481 677.163 989.147 647.83 987.486 618.5C978.574 587.467 958.375 575.634 926.89 583C912.186 590.016 902.002 601.183 896.341 616.5C887.69 642.855 882.181 669.855 879.815 697.5C867.201 700.198 855.016 704.198 843.257 709.5C825.645 704.897 808.117 700.23 790.673 695.5C803.332 680.54 810.177 663.207 811.206 643.5C811.904 608.12 803.724 574.954 786.667 544C792.087 535.179 797.762 526.512 803.694 518C794.512 511.5 785.332 505 776.15 498.5C772.291 504.884 767.95 510.884 763.129 516.5C741.925 498.498 717.72 486.831 690.514 481.5C719.995 442.242 758.056 414.742 804.695 399C816.997 395.511 829.35 393.011 841.754 391.5Z" fill="#A64242"/>
<path fill-rule="evenodd" clip-rule="evenodd" d="M586.348 696.5C596.856 709.328 609.209 719.994 623.407 728.5C608.088 739.46 594.734 752.46 583.343 767.5C581.041 743.712 582.043 720.045 586.348 696.5Z" fill="#A64242"/>
<path fill-rule="evenodd" clip-rule="evenodd" d="M679.496 517.5C704.018 518.075 725.052 526.908 742.597 544C734.006 553.248 724.824 561.748 715.053 569.5C712.027 567.132 709.689 564.132 708.042 560.5C705.293 554.754 702.456 549.088 699.528 543.5C689.448 547.365 679.767 552.032 670.482 557.5C677.935 579.079 689.954 597.579 706.539 613C713.285 618.452 720.463 623.286 728.073 627.5C734.584 618.333 741.094 609.167 747.605 600C745.444 598.088 743.106 596.421 740.593 595C739.641 594.282 739.475 593.449 740.093 592.5C747.661 586.059 755.005 579.393 762.128 572.5C767.158 581.888 770.83 591.888 773.145 602.5C776.538 616.317 777.874 630.317 777.152 644.5C773.338 665.307 762.153 680.807 743.598 691C715.128 691.792 687.75 697.626 661.467 708.5C633.955 698.861 613.422 681.194 599.869 655.5C588.407 621.274 592.413 588.941 611.888 558.5C629.07 536.007 651.606 522.341 679.496 517.5Z" fill="#FE8A22"/>
<path fill-rule="evenodd" clip-rule="evenodd" d="M718.558 727.5C720.039 727.238 721.374 727.571 722.565 728.5C663.605 762.49 628.048 813.157 615.895 880.5C614.232 889.779 613.063 899.112 612.389 908.5C622.985 909.302 633.502 910.635 643.939 912.5C647.261 872.875 660.281 836.875 683.002 804.5C707.528 774.152 738.744 753.652 776.651 743C784.18 741.079 791.692 739.246 799.187 737.5C799.937 738.635 799.771 739.635 798.686 740.5C765.028 770.301 740.156 806.301 724.067 848.5C709.289 886.867 703.781 926.534 707.541 967.5C718.582 966.665 729.6 965.665 740.593 964.5C735.311 889.13 759.349 824.964 812.708 772C862.866 728.838 919.289 718.505 981.978 741C994.671 745.01 1005.19 752.177 1013.53 762.5C1042.8 803.146 1060.49 848.479 1066.61 898.5C1069.66 920.519 1069.49 942.519 1066.11 964.5C1077.12 965.573 1088.14 966.573 1099.16 967.5C1107.29 889.283 1089.93 817.283 1047.08 751.5C1047.41 751.167 1047.75 750.833 1048.08 750.5C1051.7 751.262 1055.37 751.762 1059.1 752C1097.5 793.495 1124.38 841.662 1139.73 896.5C1148.04 938.433 1143.03 978.766 1124.71 1017.5C1110.87 1048.32 1092.67 1076.16 1070.12 1101C1063.88 1103.47 1057.53 1105.63 1051.09 1107.5C1043.69 1094.95 1033.51 1085.29 1020.54 1078.5C1026.26 1047.27 1015.25 1023.93 987.486 1008.5C986.292 995.58 981.952 983.913 974.466 973.5C978.806 899.152 973.63 825.486 958.941 752.5C948.149 754.322 937.465 756.655 926.89 759.5C940.323 823.338 944.831 887.671 940.412 952.5C913.885 946.741 892.518 954.741 876.309 976.5C871.985 983.619 869.147 991.286 867.796 999.5C860.844 1001.09 854.333 1003.76 848.265 1007.5C824.479 987.817 798.938 985.317 771.643 1000C764.591 1005.37 758.581 1011.71 753.614 1019C746.366 1017.36 739.021 1015.69 731.579 1014C722.986 1013.18 714.473 1013.35 706.038 1014.5C692.979 993.133 675.118 976.966 652.453 966C642.222 961.059 631.872 956.392 621.404 952C606.406 937.358 591.715 922.358 577.333 907C574.663 904.665 571.658 902.831 568.319 901.5C569.679 859.131 583.201 821.131 608.884 787.5C638.125 754.316 674.683 734.316 718.558 727.5Z" fill="#F9773C"/>
<path fill-rule="evenodd" clip-rule="evenodd" d="M1110.18 761.5C1151.5 774.213 1180.37 800.546 1196.82 840.5C1217.27 900.966 1212.93 959.633 1183.8 1016.5C1173.24 1035.55 1158.72 1050.88 1140.23 1062.5C1144.37 1052.21 1149.21 1041.88 1154.75 1031.5C1177.66 982.903 1182.67 932.57 1169.78 880.5C1161.64 851.935 1149.97 824.935 1134.72 799.5C1126.77 786.607 1118.59 773.94 1110.18 761.5Z" fill="#F9773C"/>
<path fill-rule="evenodd" clip-rule="evenodd" d="M938.909 613.5C948.807 612.875 954.316 617.542 955.435 627.5C956.103 651.167 956.103 674.833 955.435 698.5C955.102 698.833 954.767 699.167 954.434 699.5C941.096 696.752 927.574 695.418 913.869 695.5C915.969 675.26 919.474 655.26 924.386 635.5C926.023 625.857 930.863 618.524 938.909 613.5Z" fill="#7EBA58"/>
<path fill-rule="evenodd" clip-rule="evenodd" d="M541.276 928.5C545.829 928.268 550.169 929.101 554.297 931C568.344 946.025 582.701 960.691 597.365 975C610.451 983.136 624.14 990.136 638.431 996C650.042 1001.92 660.225 1009.75 668.979 1019.5C670.614 1021.93 672.116 1024.43 673.486 1027C656.868 1040.02 648.688 1057.19 648.947 1078.5C621.49 1091.99 609.804 1113.99 613.892 1144.5C589.59 1154.64 565.719 1153.8 542.278 1142C518.863 1123.91 506.844 1099.91 506.22 1070C506.689 1062.79 507.523 1055.62 508.724 1048.5C514.189 1028.34 518.862 1008.01 522.746 987.5C523.414 980.167 523.414 972.833 522.746 965.5C516.684 946.939 522.861 934.605 541.276 928.5Z" fill="#F9CD4A"/>
<path fill-rule="evenodd" clip-rule="evenodd" d="M424.089 965.5C446.883 963.792 468.583 967.792 489.193 977.5C490.347 980.106 490.513 982.773 489.694 985.5C484.21 1007.73 479.202 1030.07 474.67 1052.5C470.36 1090.58 480.376 1124.24 504.718 1153.5C504.111 1156.46 502.275 1158.63 499.209 1160C481.123 1170.56 461.592 1175.72 440.616 1175.5C437.894 1175.05 437.06 1173.71 438.112 1171.5C437.763 1156.97 431.754 1145.47 420.083 1137C412.685 1134.16 405.339 1131.33 398.048 1128.5C397.38 1127.17 396.713 1125.83 396.045 1124.5C401.462 1097.75 411.645 1073.08 426.593 1050.5C431.429 1044.67 436.604 1039.17 442.118 1034C434.247 1026.9 426.568 1019.56 419.081 1012C418.08 1011.33 417.078 1011.33 416.077 1012C412.844 1015.64 409.506 1019.14 406.061 1022.5C375.924 1013.73 350.383 1021.07 329.439 1044.5C318.714 1057.58 310.868 1072.25 305.901 1088.5C292.006 1086.37 279.319 1081.21 267.841 1073C253.646 1057.77 252.144 1041.27 263.333 1023.5C265.288 1021.11 267.792 1019.61 270.845 1019C289.594 1015.4 307.956 1010.4 325.933 1004C347.058 994.289 368.091 984.289 389.033 974C400.587 970.032 412.271 967.199 424.089 965.5Z" fill="#FE8A22"/>
<path fill-rule="evenodd" clip-rule="evenodd" d="M377.014 1051.5C380.019 1051.5 383.024 1051.5 386.029 1051.5C377.694 1069.46 371.351 1088.13 366.998 1107.5C362.976 1103.99 358.97 1100.16 354.979 1096C349.929 1093.39 344.921 1090.89 339.955 1088.5C347.41 1071.06 359.763 1058.72 377.014 1051.5Z" fill="#FE8A22"/>
<path fill-rule="evenodd" clip-rule="evenodd" d="M285.869 1118.5C293.513 1120.64 301.193 1122.81 308.906 1125C317.044 1125.29 325.057 1124.63 332.944 1123C337.654 1126.42 339.657 1131.09 338.954 1137C337.818 1150.6 332.142 1161.93 321.927 1171C307.198 1178.26 294.678 1175.42 284.367 1162.5C275.397 1147.51 275.897 1132.85 285.869 1118.5Z" fill="#D25155"/>
<path fill-rule="evenodd" clip-rule="evenodd" d="M371.005 1147.5C378.757 1157.7 389.107 1163.53 402.054 1165C403.827 1166.97 404.829 1169.3 405.059 1172C400.839 1186.55 391.491 1196.21 377.014 1201C368.75 1203.34 360.737 1202.67 352.976 1199C351.007 1197.54 349.338 1195.87 347.968 1194C359.355 1180.43 367.034 1164.93 371.005 1147.5Z" fill="#D25155"/>
<path fill-rule="evenodd" clip-rule="evenodd" d="M918.877 983.5C934.316 981.123 945.501 986.789 952.431 1000.5C952.921 1001.79 953.089 1003.13 952.931 1004.5C943.221 1006.1 934.373 1009.77 926.389 1015.5C918.906 1008.52 910.393 1003.18 900.848 999.5C904.716 991.632 910.725 986.299 918.877 983.5Z" fill="#7EBA58"/>
<path fill-rule="evenodd" clip-rule="evenodd" d="M800.689 1022.5C812.064 1021.85 821.078 1026.01 827.732 1035C825.459 1042.35 823.957 1049.85 823.225 1057.5C811.763 1061.22 801.747 1067.22 793.177 1075.5C780.314 1069.71 774.972 1059.71 777.152 1045.5C780.562 1033.23 788.407 1025.56 800.689 1022.5Z" fill="#7EBA58"/>
<path fill-rule="evenodd" clip-rule="evenodd" d="M881.818 1028.5C894.937 1029.09 904.119 1035.43 909.362 1047.5C911.518 1053.78 911.351 1059.95 908.861 1066C900.654 1069.01 893.142 1073.18 886.325 1078.5C878.602 1069.39 869.087 1062.89 857.78 1059C856.137 1048.26 859.81 1039.59 868.797 1033C873.15 1031.16 877.49 1029.66 881.818 1028.5Z" fill="#7EBA58"/>
<path fill-rule="evenodd" clip-rule="evenodd" d="M958.941 1035.5C977.053 1036.36 987.403 1045.69 989.99 1063.5C988.95 1074.58 983.608 1082.91 973.965 1088.5C965.906 1078.3 955.724 1070.96 943.416 1066.5C943.214 1059.45 942.713 1052.45 941.914 1045.5C946.572 1040.34 952.248 1037.01 958.941 1035.5Z" fill="#7EBA58"/>
<path fill-rule="evenodd" clip-rule="evenodd" d="M711.547 1045.5C722.507 1044.88 732.856 1047.05 742.596 1052C743.097 1052.5 743.598 1053 744.099 1053.5C745.276 1058.18 745.442 1062.85 744.6 1067.5C735.577 1069.84 727.565 1074 720.561 1080C714.425 1086.47 708.916 1093.31 704.035 1100.5C688.027 1095.19 681.015 1084.19 683.002 1067.5C688.518 1055 698.034 1047.66 711.547 1045.5Z" fill="#7EBA58"/>
<path fill-rule="evenodd" clip-rule="evenodd" d="M833.742 1088.5C852.904 1088.46 863.922 1097.96 866.794 1117C862.12 1140.36 848.432 1148.7 825.729 1142C809.477 1130.85 806.305 1116.68 816.214 1099.5C821.09 1094.16 826.934 1090.49 833.742 1088.5Z" fill="#7EBA58"/>
<path fill-rule="evenodd" clip-rule="evenodd" d="M918.877 1097.5C936.159 1095.7 947.343 1103.04 952.431 1119.5C954.352 1135.83 947.508 1146.66 931.898 1152C914.829 1154.6 903.645 1147.77 898.345 1131.5C896.277 1114.6 903.122 1103.27 918.877 1097.5Z" fill="#7EBA58"/>
<path fill-rule="evenodd" clip-rule="evenodd" d="M752.612 1099.5C762.662 1097.48 771.176 1100.15 778.153 1107.5C777.748 1118.62 779.251 1129.46 782.66 1140C773.658 1154.55 761.305 1158.22 745.601 1151C732.513 1141.8 728.674 1129.63 734.083 1114.5C738.68 1107.4 744.856 1102.4 752.612 1099.5Z" fill="#7EBA58"/>
<path fill-rule="evenodd" clip-rule="evenodd" d="M1003.01 1107.5C1014.61 1110.91 1021.45 1118.58 1023.54 1130.5C1025 1142.24 1021 1151.58 1011.52 1158.5C1004.34 1149.66 995.659 1142.66 985.483 1137.5C985.632 1131.59 985.464 1125.76 984.982 1120C991.724 1116.75 997.734 1112.58 1003.01 1107.5Z" fill="#7EBA58"/>
<path fill-rule="evenodd" clip-rule="evenodd" d="M660.466 1109.5C665.942 1115.12 671.952 1120.29 678.494 1125C683.972 1127.99 689.647 1130.49 695.522 1132.5C683.195 1140.09 673.847 1150.42 667.477 1163.5C651.942 1157.49 644.764 1146.15 645.943 1129.5C647.619 1120.46 652.46 1113.8 660.466 1109.5Z" fill="#7EBA58"/>
<path fill-rule="evenodd" clip-rule="evenodd" d="M708.542 1162.5C713.309 1167.08 718.317 1171.58 723.566 1176C728.963 1179.36 734.638 1182.19 740.593 1184.5C740.202 1192.14 740.87 1199.81 742.596 1207.5C735.345 1214.52 726.664 1217.02 716.555 1215C701.46 1209.36 694.616 1198.52 696.022 1182.5C697.597 1174.12 701.77 1167.45 708.542 1162.5Z" fill="#7EBA58"/>
<path fill-rule="evenodd" clip-rule="evenodd" d="M876.81 1163.5C881.932 1167.76 887.275 1171.93 892.836 1176C900.038 1179.95 907.55 1183.12 915.372 1185.5C913.202 1207.84 901.016 1217.01 878.813 1213C863.512 1205.95 857.67 1194.11 861.286 1177.5C861.736 1175.48 862.571 1173.65 863.79 1172C868.537 1169.64 872.878 1166.81 876.81 1163.5Z" fill="#7EBA58"/>
<path fill-rule="evenodd" clip-rule="evenodd" d="M968.957 1166.5C985.138 1172.81 991.648 1184.48 988.488 1201.5C982.596 1218.53 970.744 1225.36 952.931 1222C948.277 1220.53 944.604 1217.86 941.914 1214C946.364 1203.29 948.701 1192.12 948.925 1180.5C956.72 1177.29 963.398 1172.62 968.957 1166.5Z" fill="#7EBA58"/>
<path fill-rule="evenodd" clip-rule="evenodd" d="M802.692 1167.5C809.38 1170.5 816.056 1173.5 822.724 1176.5C832.705 1195.1 828.699 1209.94 810.705 1221C793.417 1226.29 780.897 1220.79 773.145 1204.5C771.626 1198.92 771.291 1193.25 772.144 1187.5C778.144 1184.25 784.321 1181.09 790.673 1178C795.467 1175.38 799.473 1171.88 802.692 1167.5Z" fill="#7EBA58"/>
<path fill-rule="evenodd" clip-rule="evenodd" d="M852.772 432.5C903.196 432.865 940.255 455.198 963.949 499.5C954.682 505.376 945.501 511.376 936.405 517.5C925.33 496.884 909.138 481.718 887.828 472C865.019 464.872 842.818 466.372 821.222 476.5C816.989 466.489 813.149 456.322 809.703 446C810.037 445.5 810.371 445 810.705 444.5C824.233 438.295 838.255 434.295 852.772 432.5Z" fill="#151313"/>
<path fill-rule="evenodd" clip-rule="evenodd" d="M866.794 764.5C875.952 770.242 884.966 776.242 893.837 782.5C869.367 820.52 855.512 862.187 852.271 907.5C851.028 921.806 850.527 936.139 850.769 950.5C839.852 949.494 829.002 949.494 818.217 950.5C815.391 891.122 827.744 835.122 855.276 782.5C858.876 776.302 862.716 770.302 866.794 764.5Z" fill="#151313"/>
</svg>
